<svg width="32" height="32" viewBox="0 0 32 32" fill="none" xmlns="http://www.w3.org/2000/svg">
<rect width="32" height="32" rx="16" fill="#343434"/>
<path d="M16 22.1166L15.0333 21.25C13.9111 20.2389 12.9833 19.3666 12.25 18.6333C11.5166 17.9 10.9333 17.2416 10.5 16.6583C10.0666 16.075 9.76387 15.5389 9.59165 15.05C9.41942 14.5611 9.33331 14.0611 9.33331 13.55C9.33331 12.5055 9.68331 11.6333 10.3833 10.9333C11.0833 10.2333 11.9555 9.8833 13 9.8833C13.5778 9.8833 14.1278 10.0055 14.65 10.25C15.1722 10.4944 15.6222 10.8389 16 11.2833C16.3778 10.8389 16.8278 10.4944 17.35 10.25C17.8722 10.0055 18.4222 9.8833 19 9.8833C20.0444 9.8833 20.9166 10.2333 21.6166 10.9333C22.3166 11.6333 22.6666 12.5055 22.6666 13.55C22.6666 14.0611 22.5805 14.5611 22.4083 15.05C22.2361 15.5389 21.9333 16.075 21.5 16.6583C21.0666 17.2416 20.4833 17.9 19.75 18.6333C19.0166 19.3666 18.0889 20.2389 16.9666 21.25L16 22.1166Z" fill="#FF584E"/>
</svg>
