<svg width="14" height="14" viewBox="0 0 14 14" fill="none" xmlns="http://www.w3.org/2000/svg">
<path d="M7.00004 13.1167L6.03337 12.25C4.91115 11.2389 3.98337 10.3667 3.25004 9.63333C2.51671 8.9 1.93337 8.24167 1.50004 7.65833C1.06671 7.075 0.76393 6.53889 0.591707 6.05C0.419485 5.56111 0.333374 5.06111 0.333374 4.55C0.333374 3.50555 0.683374 2.63333 1.38337 1.93333C2.08337 1.23333 2.9556 0.883331 4.00004 0.883331C4.57782 0.883331 5.12782 1.00555 5.65004 1.25C6.17226 1.49444 6.62226 1.83889 7.00004 2.28333C7.37782 1.83889 7.82782 1.49444 8.35004 1.25C8.87226 1.00555 9.42226 0.883331 10 0.883331C11.0445 0.883331 11.9167 1.23333 12.6167 1.93333C13.3167 2.63333 13.6667 3.50555 13.6667 4.55C13.6667 5.06111 13.5806 5.56111 13.4084 6.05C13.2362 6.53889 12.9334 7.075 12.5 7.65833C12.0667 8.24167 11.4834 8.9 10.75 9.63333C10.0167 10.3667 9.08893 11.2389 7.96671 12.25L7.00004 13.1167Z" fill="#FF584E"/>
</svg>
